<svg width="20" height="20" viewBox="0 0 20 20" fill="none" xmlns="http://www.w3.org/2000/svg">
<mask id="mask0_1522_49859" style="mask-type:luminance" maskUnits="userSpaceOnUse" x="1" y="0" width="18" height="20">
<path d="M10.0003 8.33341C11.8413 8.33341 13.3337 6.84103 13.3337 5.00008C13.3337 3.15913 11.8413 1.66675 10.0003 1.66675C8.15938 1.66675 6.66699 3.15913 6.66699 5.00008C6.66699 6.84103 8.15938 8.33341 10.0003 8.33341Z" fill="white" stroke="white" stroke-width="1.66667" stroke-linecap="round" stroke-linejoin="round"/>
<path d="M17.5 18.3335C17.5 14.1914 14.1421 10.8335 10 10.8335C5.85792 10.8335 2.5 14.1914 2.5 18.3335M8.33333 15.0002L11.6667 18.3335M11.6667 15.0002L8.33333 18.3335" stroke="white" stroke-width="1.66667" stroke-linecap="round" stroke-linejoin="round"/>
</mask>
<g mask="url(#mask0_1522_49859)">
<path d="M0 0H20V20H0V0Z" fill="#303030"/>
</g>
</svg>
